<svg xmlns="http://www.w3.org/2000/svg" width="1200" height="630" viewBox="0 0 1200 630">
  <defs>
    <linearGradient id="bg" x1="0%" y1="0%" x2="100%" y2="100%">
      <stop offset="0%" style="stop-color:hsl(145,40%,36%);stop-opacity:1" />
      <stop offset="100%" style="stop-color:hsl(145,50%,22%);stop-opacity:1" />
    </linearGradient>
    <linearGradient id="card-grad" x1="0%" y1="0%" x2="100%" y2="100%">
      <stop offset="0%" style="stop-color:#ffffff;stop-opacity:0.12" />
      <stop offset="100%" style="stop-color:#ffffff;stop-opacity:0.04" />
    </linearGradient>
    <filter id="blur-bg" x="-20%" y="-20%" width="140%" height="140%">
      <feGaussianBlur stdDeviation="60" />
    </filter>
    <filter id="drop-shadow">
      <feDropShadow dx="0" dy="4" stdDeviation="20" flood-color="rgba(0,0,0,0.3)" />
    </filter>
  </defs>

  <!-- Background -->
  <rect width="1200" height="630" fill="url(#bg)" />

  <!-- Decorative blobs -->
  <circle cx="200" cy="120" r="200" fill="hsl(145,60%,55%)" opacity="0.18" filter="url(#blur-bg)" />
  <circle cx="1050" cy="520" r="250" fill="hsl(30,70%,55%)" opacity="0.15" filter="url(#blur-bg)" />
  <circle cx="950" cy="100" r="150" fill="hsl(145,50%,70%)" opacity="0.12" filter="url(#blur-bg)" />

  <!-- Subtle grid lines -->
  <line x1="0" y1="210" x2="1200" y2="210" stroke="white" stroke-opacity="0.05" stroke-width="1"/>
  <line x1="0" y1="420" x2="1200" y2="420" stroke="white" stroke-opacity="0.05" stroke-width="1"/>
  <line x1="400" y1="0" x2="400" y2="630" stroke="white" stroke-opacity="0.05" stroke-width="1"/>
  <line x1="800" y1="0" x2="800" y2="630" stroke="white" stroke-opacity="0.05" stroke-width="1"/>

  <!-- Main card -->
  <rect x="80" y="80" width="1040" height="470" rx="28" fill="url(#card-grad)" stroke="white" stroke-opacity="0.15" stroke-width="1.5" filter="url(#drop-shadow)" />

  <!-- Logo icon (briefcase) -->
  <g transform="translate(144, 175)">
    <rect x="0" y="14" width="72" height="52" rx="8" fill="white" fill-opacity="0.95"/>
    <rect x="18" y="6" width="36" height="14" rx="6" fill="none" stroke="white" stroke-opacity="0.95" stroke-width="4"/>
    <line x1="0" y1="36" x2="72" y2="36" stroke="hsl(145,45%,30%)" stroke-width="3" stroke-opacity="0.4"/>
    <circle cx="36" cy="36" r="6" fill="hsl(145,45%,30%)" fill-opacity="0.5"/>
  </g>

  <!-- App name -->
  <text x="240" y="230" font-family="system-ui, -apple-system, 'Segoe UI', sans-serif" font-size="72" font-weight="800" fill="white" letter-spacing="-2">Extra</text>
  <text x="450" y="230" font-family="system-ui, -apple-system, 'Segoe UI', sans-serif" font-size="72" font-weight="300" fill="white" fill-opacity="0.85" letter-spacing="-2">Job</text>

  <!-- Tagline -->
  <text x="144" y="285" font-family="system-ui, -apple-system, 'Segoe UI', sans-serif" font-size="28" font-weight="400" fill="white" fill-opacity="0.75" letter-spacing="0.5">Trouvez des missions près de chez vous</text>

  <!-- Divider -->
  <line x1="144" y1="320" x2="560" y2="320" stroke="white" stroke-opacity="0.2" stroke-width="1.5"/>

  <!-- Feature pills -->
  <g transform="translate(144, 345)">
    <!-- Pill 1 -->
    <rect x="0" y="0" width="170" height="44" rx="22" fill="white" fill-opacity="0.12" stroke="white" stroke-opacity="0.2" stroke-width="1"/>
    <text x="44" y="28" font-family="system-ui, sans-serif" font-size="18" fill="white" fill-opacity="0.9">Baby-sitting</text>
    <text x="14" y="29" font-size="20">🧒</text>

    <!-- Pill 2 -->
    <rect x="186" y="0" width="160" height="44" rx="22" fill="white" fill-opacity="0.12" stroke="white" stroke-opacity="0.2" stroke-width="1"/>
    <text x="230" y="28" font-family="system-ui, sans-serif" font-size="18" fill="white" fill-opacity="0.9">Jardinage</text>
    <text x="200" y="29" font-size="20">🌿</text>

    <!-- Pill 3 -->
    <rect x="362" y="0" width="180" height="44" rx="22" fill="white" fill-opacity="0.12" stroke="white" stroke-opacity="0.2" stroke-width="1"/>
    <text x="408" y="28" font-family="system-ui, sans-serif" font-size="18" fill="white" fill-opacity="0.9">Déménagement</text>
    <text x="377" y="29" font-size="20">📦</text>
  </g>

  <!-- Feature pills row 2 -->
  <g transform="translate(144, 405)">
    <rect x="0" y="0" width="150" height="44" rx="22" fill="white" fill-opacity="0.12" stroke="white" stroke-opacity="0.2" stroke-width="1"/>
    <text x="44" y="28" font-family="system-ui, sans-serif" font-size="18" fill="white" fill-opacity="0.9">Bricolage</text>
    <text x="14" y="29" font-size="20">🔧</text>

    <rect x="166" y="0" width="155" height="44" rx="22" fill="white" fill-opacity="0.12" stroke="white" stroke-opacity="0.2" stroke-width="1"/>
    <text x="210" y="28" font-family="system-ui, sans-serif" font-size="18" fill="white" fill-opacity="0.9">Livraisons</text>
    <text x="180" y="29" font-size="20">🚴</text>
  </g>

  <!-- Right side illustration: location pins -->
  <g transform="translate(780, 160)" opacity="0.9">
    <!-- Map card -->
    <rect x="0" y="0" width="300" height="310" rx="20" fill="white" fill-opacity="0.08" stroke="white" stroke-opacity="0.15" stroke-width="1.5"/>

    <!-- Fake map grid -->
    <line x1="0" y1="103" x2="300" y2="103" stroke="white" stroke-opacity="0.08" stroke-width="1"/>
    <line x1="0" y1="207" x2="300" y2="207" stroke="white" stroke-opacity="0.08" stroke-width="1"/>
    <line x1="100" y1="0" x2="100" y2="310" stroke="white" stroke-opacity="0.08" stroke-width="1"/>
    <line x1="200" y1="0" x2="200" y2="310" stroke="white" stroke-opacity="0.08" stroke-width="1"/>

    <!-- Pin 1 (large, center) -->
    <g transform="translate(145, 95)">
      <circle cx="0" cy="0" r="24" fill="hsl(30,70%,55%)" fill-opacity="0.9"/>
      <circle cx="0" cy="0" r="10" fill="white"/>
      <line x1="0" y1="24" x2="0" y2="44" stroke="hsl(30,70%,55%)" stroke-opacity="0.6" stroke-width="3"/>
    </g>

    <!-- Pin 2 -->
    <g transform="translate(70, 170)">
      <circle cx="0" cy="0" r="16" fill="white" fill-opacity="0.2" stroke="white" stroke-opacity="0.4" stroke-width="2"/>
      <circle cx="0" cy="0" r="6" fill="white" fill-opacity="0.7"/>
      <line x1="0" y1="16" x2="0" y2="28" stroke="white" stroke-opacity="0.3" stroke-width="2"/>
    </g>

    <!-- Pin 3 -->
    <g transform="translate(230, 130)">
      <circle cx="0" cy="0" r="16" fill="white" fill-opacity="0.2" stroke="white" stroke-opacity="0.4" stroke-width="2"/>
      <circle cx="0" cy="0" r="6" fill="white" fill-opacity="0.7"/>
      <line x1="0" y1="16" x2="0" y2="28" stroke="white" stroke-opacity="0.3" stroke-width="2"/>
    </g>

    <!-- Pin 4 -->
    <g transform="translate(190, 230)">
      <circle cx="0" cy="0" r="14" fill="white" fill-opacity="0.15" stroke="white" stroke-opacity="0.3" stroke-width="1.5"/>
      <circle cx="0" cy="0" r="5" fill="white" fill-opacity="0.6"/>
    </g>

    <!-- Label under big pin -->
    <rect x="100" y="248" width="100" height="30" rx="15" fill="white" fill-opacity="0.15" stroke="white" stroke-opacity="0.2" stroke-width="1"/>
    <text x="150" y="268" text-anchor="middle" font-family="system-ui, sans-serif" font-size="14" fill="white" fill-opacity="0.9" font-weight="600">Roanne</text>
  </g>

  <!-- Bottom URL -->
  <text x="144" y="505" font-family="system-ui, -apple-system, 'Segoe UI', sans-serif" font-size="20" fill="white" fill-opacity="0.45" letter-spacing="1">extrajob.app</text>
</svg>
